<svg xmlns="http://www.w3.org/2000/svg" viewBox="0 0 800 420" font-family="Segoe UI, sans-serif">
<rect width="800" height="420" fill="#0d1117" rx="8"/>
<text x="64" y="30" fill="#e6edf3" font-size="17" font-weight="700">★ Star History — timoncool/HiggsAudio-Studio</text>
<text x="776" y="30" fill="#e6edf3" font-size="14" text-anchor="end">83 stars · updated 2026-09-26</text>
<line x1="64" y1="364.0" x2="776" y2="364.0" stroke="#30363d" stroke-width="1"/><text x="54" y="368.0" fill="#e6edf3" font-size="13" text-anchor="end">0</text><line x1="64" y1="284.0" x2="776" y2="284.0" stroke="#30363d" stroke-width="1"/><text x="54" y="288.0" fill="#e6edf3" font-size="13" text-anchor="end">21</text><line x1="64" y1="204.1" x2="776" y2="204.1" stroke="#30363d" stroke-width="1"/><text x="54" y="208.1" fill="#e6edf3" font-size="13" text-anchor="end">42</text><line x1="64" y1="128.0" x2="776" y2="128.0" stroke="#30363d" stroke-width="1"/><text x="54" y="132.0" fill="#e6edf3" font-size="13" text-anchor="end">62</text><line x1="64" y1="48.0" x2="776" y2="48.0" stroke="#30363d" stroke-width="1"/><text x="54" y="52.0" fill="#e6edf3" font-size="13" text-anchor="end">83</text>
<path d="M64.0,364.0 L64.0,360.2 L67.5,356.4 L68.0,352.6 L68.0,348.8 L68.0,345.0 L68.1,341.2 L68.1,337.3 L68.3,333.5 L68.3,329.7 L68.7,325.9 L68.8,322.1 L68.8,318.3 L68.9,314.5 L69.5,310.7 L69.7,306.9 L74.2,303.1 L74.3,299.3 L75.0,295.5 L75.4,291.7 L75.9,287.9 L75.9,284.0 L76.1,280.2 L76.2,276.4 L76.3,272.6 L76.8,268.8 L80.5,265.0 L81.3,261.2 L86.2,257.4 L88.4,253.6 L91.3,249.8 L95.5,246.0 L99.9,242.2 L104.0,238.4 L106.4,234.6 L106.4,230.7 L111.5,226.9 L112.0,223.1 L114.6,219.3 L118.9,215.5 L124.3,211.7 L126.9,207.9 L129.0,204.1 L147.1,200.3 L149.7,196.5 L150.7,192.7 L151.2,188.9 L154.4,185.1 L169.4,181.3 L183.3,177.4 L184.5,173.6 L184.7,169.8 L187.6,166.0 L190.8,162.2 L212.2,158.4 L225.4,154.6 L238.0,150.8 L238.8,147.0 L239.9,143.2 L256.4,139.4 L293.9,135.6 L339.3,131.8 L349.6,128.0 L361.7,124.1 L403.4,120.3 L403.5,116.5 L464.9,112.7 L510.4,108.9 L517.3,105.1 L559.9,101.3 L583.2,97.5 L586.0,93.7 L593.2,89.9 L601.1,86.1 L604.9,82.3 L642.5,78.5 L656.3,74.7 L661.4,70.8 L664.9,67.0 L668.8,63.2 L674.6,59.4 L674.9,55.6 L758.0,51.8 L760.6,48.0 L776.0,48.0" fill="none" stroke="#4f8ff7" stroke-width="2.5" stroke-linejoin="round"/>
<circle cx="776.0" cy="48.0" r="4" fill="#4f8ff7"/>
<text x="64.0" y="388" fill="#e6edf3" font-size="13" text-anchor="middle">Jun 13, 2026</text><text x="301.3" y="388" fill="#e6edf3" font-size="13" text-anchor="middle">Jul 18, 2026</text><text x="538.7" y="388" fill="#e6edf3" font-size="13" text-anchor="middle">Aug 22, 2026</text><text x="776.0" y="388" fill="#e6edf3" font-size="13" text-anchor="middle">Sep 26, 2026</text>
</svg>